<svg xmlns="http://www.w3.org/2000/svg" viewBox="-16 -16 477.6 132.0">

<g transform="translate(-9.29 100.00) scale(0.1429 -0.1429)"><path d="M65 700H561V585H201V391H513V276H201V0H65Z M1913.0 232V0H1777.0V201L1717.0 268H1499.0V0H1363.0V700H1802.0L1909.0 592V380L1841.0 311ZM1499.0 380H1740.0L1775.0 415V551L1740.0 586H1499.0ZM2010.0 115V585L2125.0 700H2473.0L2586.0 587V480H2450.0V537L2403.0 584H2197.0L2146.0 533V167L2197.0 116H2405.0L2454.0 165V274H2304.0V390H2586.0V115L2471.0 0H2125.0ZM2678.0 700H3184.0V585H2814.0V408H3155.0V295H2814.0V115H3184.0V0H2678.0Z" fill="#F2EFE9"/></g>
<g transform="translate(56.52 -18.06) scale(1.3611)"><circle cx="50" cy="50" r="33" fill="none" stroke="#F2EFE9" stroke-width="6"/><circle cx="50" cy="17" r="5.5" fill="#F2EFE9"/><path d="M36 38 L62 38 L73 41.5 L62 45 L60 45 L58 50 L62 50 L66 63 L34 63 L38 50 L42 50 L40 45 L36 45 Z" fill="#F2EFE9"/></g>
</svg>
